<mxfile host="app.diagrams.net" modified="2023-10-07T15:00:25.236Z" agent="Mozilla/5.0 (Windows NT 10.0; Win64; x64) AppleWebKit/537.36 (KHTML, like Gecko) Chrome/117.0.0.0 Safari/537.36" etag="t42LaCDPDeAcw5vIE5BJ" version="22.0.4" type="device">
  <diagram name="Page-1" id="hSw4PI0LHwNwLQ7EjtFd">
    <mxGraphModel dx="1707" dy="529" grid="1" gridSize="10" guides="1" tooltips="1" connect="1" arrows="1" fold="1" page="1" pageScale="1" pageWidth="827" pageHeight="1169" background="#ffffff" math="0" shadow="1">
      <root>
        <mxCell id="0" />
        <mxCell id="1" parent="0" />
        <mxCell id="kgXlEipLvSAaQynZJTiy-1" value="Users" style="swimlane;fontStyle=0;childLayout=stackLayout;horizontal=1;startSize=26;horizontalStack=0;resizeParent=1;resizeParentMax=0;resizeLast=0;collapsible=1;marginBottom=0;align=center;fontSize=14;gradientColor=none;swimlaneFillColor=default;glass=0;rounded=1;" vertex="1" parent="1">
          <mxGeometry x="254" y="75" width="160" height="206" as="geometry" />
        </mxCell>
        <mxCell id="kgXlEipLvSAaQynZJTiy-2" value="id" style="text;strokeColor=none;fillColor=none;spacingLeft=4;spacingRight=4;overflow=hidden;rotatable=0;points=[[0,0.5],[1,0.5]];portConstraint=eastwest;fontSize=12;whiteSpace=wrap;html=1;perimeterSpacing=4;" vertex="1" parent="kgXlEipLvSAaQynZJTiy-1">
          <mxGeometry y="26" width="160" height="30" as="geometry" />
        </mxCell>
        <mxCell id="kgXlEipLvSAaQynZJTiy-3" value="name" style="text;strokeColor=none;fillColor=none;spacingLeft=4;spacingRight=4;overflow=hidden;rotatable=0;points=[[0,0.5],[1,0.5]];portConstraint=eastwest;fontSize=12;whiteSpace=wrap;html=1;glass=0;rounded=0;" vertex="1" parent="kgXlEipLvSAaQynZJTiy-1">
          <mxGeometry y="56" width="160" height="30" as="geometry" />
        </mxCell>
        <mxCell id="kgXlEipLvSAaQynZJTiy-4" value="photo" style="text;strokeColor=none;fillColor=none;spacingLeft=4;spacingRight=4;overflow=hidden;rotatable=0;points=[[0,0.5],[1,0.5]];portConstraint=eastwest;fontSize=12;whiteSpace=wrap;html=1;" vertex="1" parent="kgXlEipLvSAaQynZJTiy-1">
          <mxGeometry y="86" width="160" height="30" as="geometry" />
        </mxCell>
        <mxCell id="kgXlEipLvSAaQynZJTiy-9" value="email" style="text;strokeColor=none;fillColor=none;spacingLeft=4;spacingRight=4;overflow=hidden;rotatable=0;points=[[0,0.5],[1,0.5]];portConstraint=eastwest;fontSize=12;whiteSpace=wrap;html=1;" vertex="1" parent="kgXlEipLvSAaQynZJTiy-1">
          <mxGeometry y="116" width="160" height="30" as="geometry" />
        </mxCell>
        <mxCell id="kgXlEipLvSAaQynZJTiy-10" value="email_verfied_at" style="text;strokeColor=none;fillColor=none;spacingLeft=4;spacingRight=4;overflow=hidden;rotatable=0;points=[[0,0.5],[1,0.5]];portConstraint=eastwest;fontSize=12;whiteSpace=wrap;html=1;" vertex="1" parent="kgXlEipLvSAaQynZJTiy-1">
          <mxGeometry y="146" width="160" height="30" as="geometry" />
        </mxCell>
        <mxCell id="kgXlEipLvSAaQynZJTiy-11" value="password" style="text;strokeColor=none;fillColor=none;spacingLeft=4;spacingRight=4;overflow=hidden;rotatable=0;points=[[0,0.5],[1,0.5]];portConstraint=eastwest;fontSize=12;whiteSpace=wrap;html=1;" vertex="1" parent="kgXlEipLvSAaQynZJTiy-1">
          <mxGeometry y="176" width="160" height="30" as="geometry" />
        </mxCell>
        <mxCell id="kgXlEipLvSAaQynZJTiy-5" value="chats" style="swimlane;fontStyle=0;childLayout=stackLayout;horizontal=1;startSize=26;horizontalStack=0;resizeParent=1;resizeParentMax=0;resizeLast=0;collapsible=1;marginBottom=0;align=center;fontSize=14;gradientColor=none;swimlaneFillColor=default;glass=0;rounded=1;" vertex="1" parent="1">
          <mxGeometry x="700" y="90" width="160" height="116" as="geometry" />
        </mxCell>
        <mxCell id="kgXlEipLvSAaQynZJTiy-6" value="id" style="text;strokeColor=none;fillColor=none;spacingLeft=4;spacingRight=4;overflow=hidden;rotatable=0;points=[[0,0.5],[1,0.5]];portConstraint=eastwest;fontSize=12;whiteSpace=wrap;html=1;perimeterSpacing=4;" vertex="1" parent="kgXlEipLvSAaQynZJTiy-5">
          <mxGeometry y="26" width="160" height="30" as="geometry" />
        </mxCell>
        <mxCell id="kgXlEipLvSAaQynZJTiy-7" value="send_id" style="text;strokeColor=none;fillColor=none;spacingLeft=4;spacingRight=4;overflow=hidden;rotatable=0;points=[[0,0.5],[1,0.5]];portConstraint=eastwest;fontSize=12;whiteSpace=wrap;html=1;glass=0;rounded=0;" vertex="1" parent="kgXlEipLvSAaQynZJTiy-5">
          <mxGeometry y="56" width="160" height="30" as="geometry" />
        </mxCell>
        <mxCell id="kgXlEipLvSAaQynZJTiy-8" value="user_id" style="text;strokeColor=none;fillColor=none;spacingLeft=4;spacingRight=4;overflow=hidden;rotatable=0;points=[[0,0.5],[1,0.5]];portConstraint=eastwest;fontSize=12;whiteSpace=wrap;html=1;" vertex="1" parent="kgXlEipLvSAaQynZJTiy-5">
          <mxGeometry y="86" width="160" height="30" as="geometry" />
        </mxCell>
        <mxCell id="kgXlEipLvSAaQynZJTiy-12" value="messages" style="swimlane;fontStyle=0;childLayout=stackLayout;horizontal=1;startSize=26;horizontalStack=0;resizeParent=1;resizeParentMax=0;resizeLast=0;collapsible=1;marginBottom=0;align=center;fontSize=14;gradientColor=none;swimlaneFillColor=default;glass=0;rounded=1;" vertex="1" parent="1">
          <mxGeometry x="480" y="190" width="160" height="176" as="geometry" />
        </mxCell>
        <mxCell id="kgXlEipLvSAaQynZJTiy-13" value="id" style="text;strokeColor=none;fillColor=none;spacingLeft=4;spacingRight=4;overflow=hidden;rotatable=0;points=[[0,0.5],[1,0.5]];portConstraint=eastwest;fontSize=12;whiteSpace=wrap;html=1;perimeterSpacing=4;" vertex="1" parent="kgXlEipLvSAaQynZJTiy-12">
          <mxGeometry y="26" width="160" height="30" as="geometry" />
        </mxCell>
        <mxCell id="kgXlEipLvSAaQynZJTiy-16" value="message" style="text;strokeColor=none;fillColor=none;spacingLeft=4;spacingRight=4;overflow=hidden;rotatable=0;points=[[0,0.5],[1,0.5]];portConstraint=eastwest;fontSize=12;whiteSpace=wrap;html=1;perimeterSpacing=4;" vertex="1" parent="kgXlEipLvSAaQynZJTiy-12">
          <mxGeometry y="56" width="160" height="30" as="geometry" />
        </mxCell>
        <mxCell id="kgXlEipLvSAaQynZJTiy-14" value="user_id" style="text;strokeColor=none;fillColor=none;spacingLeft=4;spacingRight=4;overflow=hidden;rotatable=0;points=[[0,0.5],[1,0.5]];portConstraint=eastwest;fontSize=12;whiteSpace=wrap;html=1;glass=0;rounded=0;" vertex="1" parent="kgXlEipLvSAaQynZJTiy-12">
          <mxGeometry y="86" width="160" height="30" as="geometry" />
        </mxCell>
        <mxCell id="kgXlEipLvSAaQynZJTiy-15" value="receiver_id" style="text;strokeColor=none;fillColor=none;spacingLeft=4;spacingRight=4;overflow=hidden;rotatable=0;points=[[0,0.5],[1,0.5]];portConstraint=eastwest;fontSize=12;whiteSpace=wrap;html=1;" vertex="1" parent="kgXlEipLvSAaQynZJTiy-12">
          <mxGeometry y="116" width="160" height="30" as="geometry" />
        </mxCell>
        <mxCell id="kgXlEipLvSAaQynZJTiy-17" value="chat_id" style="text;strokeColor=none;fillColor=none;spacingLeft=4;spacingRight=4;overflow=hidden;rotatable=0;points=[[0,0.5],[1,0.5]];portConstraint=eastwest;fontSize=12;whiteSpace=wrap;html=1;" vertex="1" parent="kgXlEipLvSAaQynZJTiy-12">
          <mxGeometry y="146" width="160" height="30" as="geometry" />
        </mxCell>
        <mxCell id="kgXlEipLvSAaQynZJTiy-18" style="edgeStyle=orthogonalEdgeStyle;rounded=0;orthogonalLoop=1;jettySize=auto;html=1;entryX=0;entryY=0.5;entryDx=0;entryDy=0;" edge="1" parent="1" source="kgXlEipLvSAaQynZJTiy-6" target="kgXlEipLvSAaQynZJTiy-17">
          <mxGeometry relative="1" as="geometry" />
        </mxCell>
        <mxCell id="kgXlEipLvSAaQynZJTiy-19" style="edgeStyle=orthogonalEdgeStyle;rounded=0;orthogonalLoop=1;jettySize=auto;html=1;entryX=-0.006;entryY=0.733;entryDx=0;entryDy=0;entryPerimeter=0;" edge="1" parent="1" source="kgXlEipLvSAaQynZJTiy-2" target="kgXlEipLvSAaQynZJTiy-8">
          <mxGeometry relative="1" as="geometry" />
        </mxCell>
        <mxCell id="kgXlEipLvSAaQynZJTiy-20" style="edgeStyle=orthogonalEdgeStyle;rounded=0;orthogonalLoop=1;jettySize=auto;html=1;exitX=0;exitY=0.5;exitDx=0;exitDy=0;entryX=0;entryY=0.5;entryDx=0;entryDy=0;" edge="1" parent="1" source="kgXlEipLvSAaQynZJTiy-2" target="kgXlEipLvSAaQynZJTiy-14">
          <mxGeometry relative="1" as="geometry" />
        </mxCell>
        <mxCell id="kgXlEipLvSAaQynZJTiy-21" value="contacts" style="swimlane;fontStyle=0;childLayout=stackLayout;horizontal=1;startSize=26;horizontalStack=0;resizeParent=1;resizeParentMax=0;resizeLast=0;collapsible=1;marginBottom=0;align=center;fontSize=14;gradientColor=none;swimlaneFillColor=default;glass=0;rounded=1;" vertex="1" parent="1">
          <mxGeometry x="-160" y="100" width="160" height="176" as="geometry" />
        </mxCell>
        <mxCell id="kgXlEipLvSAaQynZJTiy-22" value="id" style="text;strokeColor=none;fillColor=none;spacingLeft=4;spacingRight=4;overflow=hidden;rotatable=0;points=[[0,0.5],[1,0.5]];portConstraint=eastwest;fontSize=12;whiteSpace=wrap;html=1;perimeterSpacing=4;" vertex="1" parent="kgXlEipLvSAaQynZJTiy-21">
          <mxGeometry y="26" width="160" height="30" as="geometry" />
        </mxCell>
        <mxCell id="kgXlEipLvSAaQynZJTiy-23" value="user_id" style="text;strokeColor=none;fillColor=none;spacingLeft=4;spacingRight=4;overflow=hidden;rotatable=0;points=[[0,0.5],[1,0.5]];portConstraint=eastwest;fontSize=12;whiteSpace=wrap;html=1;perimeterSpacing=4;" vertex="1" parent="kgXlEipLvSAaQynZJTiy-21">
          <mxGeometry y="56" width="160" height="30" as="geometry" />
        </mxCell>
        <mxCell id="kgXlEipLvSAaQynZJTiy-24" value="save_user_id" style="text;strokeColor=none;fillColor=none;spacingLeft=4;spacingRight=4;overflow=hidden;rotatable=0;points=[[0,0.5],[1,0.5]];portConstraint=eastwest;fontSize=12;whiteSpace=wrap;html=1;glass=0;rounded=0;" vertex="1" parent="kgXlEipLvSAaQynZJTiy-21">
          <mxGeometry y="86" width="160" height="30" as="geometry" />
        </mxCell>
        <mxCell id="kgXlEipLvSAaQynZJTiy-25" value="name" style="text;strokeColor=none;fillColor=none;spacingLeft=4;spacingRight=4;overflow=hidden;rotatable=0;points=[[0,0.5],[1,0.5]];portConstraint=eastwest;fontSize=12;whiteSpace=wrap;html=1;" vertex="1" parent="kgXlEipLvSAaQynZJTiy-21">
          <mxGeometry y="116" width="160" height="30" as="geometry" />
        </mxCell>
        <mxCell id="kgXlEipLvSAaQynZJTiy-26" value="email" style="text;strokeColor=none;fillColor=none;spacingLeft=4;spacingRight=4;overflow=hidden;rotatable=0;points=[[0,0.5],[1,0.5]];portConstraint=eastwest;fontSize=12;whiteSpace=wrap;html=1;" vertex="1" parent="kgXlEipLvSAaQynZJTiy-21">
          <mxGeometry y="146" width="160" height="30" as="geometry" />
        </mxCell>
        <mxCell id="kgXlEipLvSAaQynZJTiy-27" value="contacts_users" style="swimlane;fontStyle=0;childLayout=stackLayout;horizontal=1;startSize=26;horizontalStack=0;resizeParent=1;resizeParentMax=0;resizeLast=0;collapsible=1;marginBottom=0;align=center;fontSize=14;gradientColor=none;swimlaneFillColor=default;glass=0;rounded=1;" vertex="1" parent="1">
          <mxGeometry x="60" y="130" width="160" height="116" as="geometry">
            <mxRectangle x="60" y="210" width="130" height="30" as="alternateBounds" />
          </mxGeometry>
        </mxCell>
        <mxCell id="kgXlEipLvSAaQynZJTiy-28" value="id" style="text;strokeColor=none;fillColor=none;spacingLeft=4;spacingRight=4;overflow=hidden;rotatable=0;points=[[0,0.5],[1,0.5]];portConstraint=eastwest;fontSize=12;whiteSpace=wrap;html=1;perimeterSpacing=4;" vertex="1" parent="kgXlEipLvSAaQynZJTiy-27">
          <mxGeometry y="26" width="160" height="30" as="geometry" />
        </mxCell>
        <mxCell id="kgXlEipLvSAaQynZJTiy-29" value="user_id" style="text;strokeColor=none;fillColor=none;spacingLeft=4;spacingRight=4;overflow=hidden;rotatable=0;points=[[0,0.5],[1,0.5]];portConstraint=eastwest;fontSize=12;whiteSpace=wrap;html=1;perimeterSpacing=4;" vertex="1" parent="kgXlEipLvSAaQynZJTiy-27">
          <mxGeometry y="56" width="160" height="30" as="geometry" />
        </mxCell>
        <mxCell id="kgXlEipLvSAaQynZJTiy-30" value="save_user_id" style="text;strokeColor=none;fillColor=none;spacingLeft=4;spacingRight=4;overflow=hidden;rotatable=0;points=[[0,0.5],[1,0.5]];portConstraint=eastwest;fontSize=12;whiteSpace=wrap;html=1;glass=0;rounded=0;" vertex="1" parent="kgXlEipLvSAaQynZJTiy-27">
          <mxGeometry y="86" width="160" height="30" as="geometry" />
        </mxCell>
        <mxCell id="kgXlEipLvSAaQynZJTiy-33" style="edgeStyle=orthogonalEdgeStyle;rounded=0;orthogonalLoop=1;jettySize=auto;html=1;entryX=0.024;entryY=0.342;entryDx=0;entryDy=0;entryPerimeter=0;" edge="1" parent="1" source="kgXlEipLvSAaQynZJTiy-29" target="kgXlEipLvSAaQynZJTiy-2">
          <mxGeometry relative="1" as="geometry" />
        </mxCell>
        <mxCell id="kgXlEipLvSAaQynZJTiy-35" style="edgeStyle=orthogonalEdgeStyle;rounded=0;orthogonalLoop=1;jettySize=auto;html=1;exitX=0;exitY=0.5;exitDx=0;exitDy=0;" edge="1" parent="1" source="kgXlEipLvSAaQynZJTiy-30" target="kgXlEipLvSAaQynZJTiy-24">
          <mxGeometry relative="1" as="geometry" />
        </mxCell>
      </root>
    </mxGraphModel>
  </diagram>
</mxfile>
